<svg width="50" height="50" viewBox="0 0 50 50" fill="none" xmlns="http://www.w3.org/2000/svg">
<path d="M38.625 15.625C43.2 17.975 43.575 23.575 40.375 28.075C38.375 30.875 34.55 32.775 31.725 32.525L25.125 45H22.5L15.875 32.525C13.05 32.925 9.05001 30.95 7.00001 28.05C3.80001 23.55 4.17501 17.95 8.77501 15.625C9.97501 15.025 11.175 14.8 12.35 14.85C12.325 15.85 12.375 16.85 12.525 17.875C13.175 22.1 16.05 26.7 19.675 28.8C19.2 30.175 18.45 31.275 17.475 31.925L22.5 41.45V27.3C19.1 26.375 15.65 21.9 15 17.5C14 10.875 17.5 5 23.75 5C30 5 33.5 10.875 32.5 17.5C31.85 21.9 28.4 26.375 25 27.3V41.725L30.175 32.125C29.075 31.55 28.25 30.35 27.7 28.875C31.4 26.8 34.325 22.15 34.975 17.875C35.125 16.85 35.175 15.825 35.15 14.825C36.3 14.8 37.45 15.025 38.625 15.625Z" fill="currentColor"/>
</svg>
