<svg width="50" height="50" viewBox="0 0 50 50" fill="none" xmlns="http://www.w3.org/2000/svg">
<path d="M36.625 21.28C30.925 9.0125 27.96 4.3525 18.6475 4.5475C15.33 4.615 16.125 2.1425 13.595 3.08C11.07 4.0175 13.2375 5.39 10.6525 7.5125C3.39751 13.47 4.06501 18.98 7.43001 32.1125C8.84751 37.645 4.01251 37.915 5.92501 43.275C7.32251 47.185 17.6225 48.8225 28.4875 44.7925C39.355 40.76 46.2025 32.7575 44.805 28.8475C42.8925 23.485 39.0275 26.445 36.625 21.28ZM27.31 41.4875C17.605 45.0875 9.63001 42.9725 9.29251 42.03C8.71251 40.405 12.425 34.99 23.52 30.8725C34.615 26.755 40.8075 28.2825 41.455 30.095C41.8375 31.1675 37.0175 37.885 27.31 41.4875ZM24.19 32.7525C19.1175 34.635 15.5925 36.7875 13.3075 38.725C14.915 40.185 17.925 40.54 20.9225 39.4275C24.74 38.015 27.0875 34.7625 26.16 32.1675L26.12 32.0775C25.4925 32.2825 24.85 32.505 24.19 32.7525Z" fill="currentColor"/>
</svg>
