<svg width="703" height="710" viewBox="0 0 703 710" fill="none" xmlns="http://www.w3.org/2000/svg">
<path opacity="0.28" d="M287 573C445.506 573 574 444.73 574 286.5C574 128.27 445.506 0 287 0C128.494 0 0 128.27 0 286.5C0 444.73 128.494 573 287 573Z" fill="#93BAFB"/>
<path opacity="0.28" d="M574 355C645.245 355 703 297.245 703 226C703 154.755 645.245 97 574 97C502.755 97 445 154.755 445 226C445 297.245 502.755 355 574 355Z" fill="#93BAFB"/>
<path opacity="0.37" d="M458 703C575.637 703 671 607.637 671 490C671 372.363 575.637 277 458 277C340.363 277 245 372.363 245 490C245 607.637 340.363 703 458 703Z" fill="#93BAFB"/>
<path d="M553.5 544C542.178 544 533 534.822 533 523.5C533 512.178 542.178 503 553.5 503C564.822 503 574 512.178 574 523.5C573.984 534.815 564.815 543.984 553.5 544ZM553.5 511.494C546.87 511.494 541.494 516.87 541.494 523.5C541.494 530.13 546.87 535.506 553.5 535.506C560.13 535.506 565.506 530.13 565.506 523.5C565.49 516.876 560.124 511.51 553.5 511.494Z" fill="url(#paint0_linear)"/>
<path d="M201 154C206.523 154 211 149.523 211 144C211 138.477 206.523 134 201 134C195.477 134 191 138.477 191 144C191 149.523 195.477 154 201 154Z" fill="url(#paint1_linear)"/>
<path d="M124 397C113.507 397 105 388.493 105 378C105 388.493 96.4934 397 86 397C91.0391 397 95.8718 399.002 99.435 402.565C102.998 406.128 105 410.961 105 416C105 410.961 107.002 406.128 110.565 402.565C114.128 399.002 118.961 397 124 397Z" fill="#FC3232"/>
<path d="M507 223C499.82 223 494 217.18 494 210C494 217.18 488.18 223 481 223C488.18 223 494 228.82 494 236C494 228.82 499.82 223 507 223Z" fill="#FBB040"/>
<path d="M8.74698 217C7.63746 217.006 6.63432 216.341 6.20885 215.318C5.78339 214.294 6.02017 213.114 6.80796 212.334L15.4926 203.656C16.5761 202.729 18.1913 202.791 19.2001 203.799C20.2088 204.807 20.2712 206.421 19.3433 207.504L10.686 216.181C10.1751 216.702 9.47683 216.997 8.74698 217Z" fill="url(#paint2_linear)"/>
<path d="M18.0909 218C17.3222 218.004 16.5833 217.703 16.0375 217.161L6.84036 207.934C5.71426 206.799 5.72073 204.967 6.85482 203.84C7.9889 202.714 9.82115 202.721 10.9472 203.855L20.1444 213.054C20.9786 213.881 21.2294 215.131 20.7788 216.217C20.3282 217.302 19.2659 218.007 18.0909 218Z" fill="url(#paint3_linear)"/>
<path d="M453.747 710C452.637 710.006 451.634 709.341 451.209 708.318C450.783 707.294 451.02 706.114 451.808 705.334L460.493 696.656C461.576 695.729 463.191 695.791 464.2 696.799C465.209 697.807 465.271 699.421 464.343 700.504L455.659 709.181C455.154 709.695 454.467 709.99 453.747 710Z" fill="url(#paint4_linear)"/>
<path d="M462.28 709.973C461.554 709.977 460.857 709.692 460.341 709.181L451.657 700.504C450.729 699.421 450.791 697.807 451.8 696.799C452.809 695.791 454.424 695.729 455.507 696.656L464.192 705.334C464.98 706.114 465.217 707.294 464.791 708.318C464.366 709.341 463.363 710.006 462.253 710L462.28 709.973Z" fill="url(#paint5_linear)"/>
<path d="M342.954 90.9999C341.761 91.0069 340.682 90.2921 340.225 89.1913C339.767 88.0906 340.022 86.8227 340.869 85.9834L347.153 79.7054C348.318 78.7086 350.055 78.7757 351.14 79.8593C352.225 80.9429 352.292 82.6779 351.294 83.8419L345.009 90.1199C344.467 90.6726 343.728 90.9889 342.954 90.9999Z" fill="url(#paint6_linear)"/>
<path d="M349.076 90.9706C348.295 90.9751 347.545 90.669 346.991 90.1199L340.706 83.8419C339.708 82.6779 339.775 80.9429 340.86 79.8593C341.945 78.7757 343.682 78.7086 344.847 79.7054L351.131 85.9834C351.978 86.8227 352.233 88.0906 351.775 89.1913C351.318 90.2921 350.239 91.0069 349.046 90.9999L349.076 90.9706Z" fill="url(#paint7_linear)"/>
<path d="M670.28 325.973C669.554 325.977 668.857 325.692 668.341 325.181L659.657 316.504C658.729 315.421 658.791 313.807 659.8 312.799C660.809 311.791 662.424 311.729 663.507 312.656L672.192 321.334C672.98 322.114 673.217 323.294 672.791 324.318C672.366 325.341 671.363 326.006 670.253 326L670.28 325.973Z" fill="url(#paint8_linear)"/>
<path d="M661.747 326C660.637 326.006 659.634 325.341 659.209 324.318C658.783 323.294 659.02 322.114 659.808 321.334L668.493 312.656C669.576 311.729 671.191 311.791 672.2 312.799C673.209 313.807 673.271 315.421 672.343 316.504L663.659 325.181C663.154 325.695 662.467 325.99 661.747 326Z" fill="url(#paint9_linear)"/>
<path d="M275 566C298.492 580.648 325.588 589 354.438 589C381.312 589 406.665 581.752 429 568.919" stroke="url(#paint10_linear)" stroke-width="24" stroke-linecap="round" stroke-linejoin="round"/>
<path d="M352.5 524C437.276 524 506 455.276 506 370.5C506 285.724 437.276 217 352.5 217C267.724 217 199 285.724 199 370.5C199 455.276 267.724 524 352.5 524Z" stroke="url(#paint11_linear)" stroke-width="24"/>
<path d="M352.5 465C404.691 465 447 422.691 447 370.5C447 318.309 404.691 276 352.5 276C300.309 276 258 318.309 258 370.5C258 422.691 300.309 465 352.5 465Z" fill="url(#paint12_linear)"/>
<path d="M328 362C332.971 362 337 355.284 337 347C337 338.716 332.971 332 328 332C323.029 332 319 338.716 319 347C319 355.284 323.029 362 328 362Z" fill="#231F20"/>
<path d="M376 362C380.971 362 385 355.284 385 347C385 338.716 380.971 332 376 332C371.029 332 367 338.716 367 347C367 355.284 371.029 362 376 362Z" fill="#231F20"/>
<path d="M376 345C378.209 345 380 342.761 380 340C380 337.239 378.209 335 376 335C373.791 335 372 337.239 372 340C372 342.761 373.791 345 376 345Z" fill="white"/>
<path d="M328 345C330.209 345 332 342.761 332 340C332 337.239 330.209 335 328 335C325.791 335 324 337.239 324 340C324 342.761 325.791 345 328 345Z" fill="white"/>
<path d="M327.5 393.5H377.5" stroke="#231F20" stroke-width="7" stroke-linecap="round" stroke-linejoin="round"/>
<defs>
<linearGradient id="paint0_linear" x1="533.085" y1="523.5" x2="574.113" y2="523.5" gradientUnits="userSpaceOnUse">
<stop stop-color="#FF753F"/>
<stop offset="1" stop-color="#FF4700"/>
</linearGradient>
<linearGradient id="paint1_linear" x1="191" y1="144" x2="211" y2="144" gradientUnits="userSpaceOnUse">
<stop stop-color="#FF753F"/>
<stop offset="1" stop-color="#FF4700"/>
</linearGradient>
<linearGradient id="paint2_linear" x1="11.1461" y1="207.983" x2="15.0083" y2="211.842" gradientUnits="userSpaceOnUse">
<stop stop-color="#FF753F"/>
<stop offset="1" stop-color="#FF4700"/>
</linearGradient>
<linearGradient id="paint3_linear" x1="15.5491" y1="208.451" x2="11.4589" y2="212.542" gradientUnits="userSpaceOnUse">
<stop stop-color="#FF753F"/>
<stop offset="1" stop-color="#FF4700"/>
</linearGradient>
<linearGradient id="paint4_linear" x1="456.153" y1="701.002" x2="460.015" y2="704.861" gradientUnits="userSpaceOnUse">
<stop stop-color="#FF753F"/>
<stop offset="1" stop-color="#FF4700"/>
</linearGradient>
<linearGradient id="paint5_linear" x1="459.922" y1="701.003" x2="456.06" y2="704.862" gradientUnits="userSpaceOnUse">
<stop stop-color="#FF753F"/>
<stop offset="1" stop-color="#FF4700"/>
</linearGradient>
<linearGradient id="paint6_linear" x1="344.015" y1="82.8509" x2="348.168" y2="86.9997" gradientUnits="userSpaceOnUse">
<stop stop-color="#FF753F"/>
<stop offset="1" stop-color="#FF4700"/>
</linearGradient>
<linearGradient id="paint7_linear" x1="348.03" y1="82.8309" x2="343.877" y2="86.9797" gradientUnits="userSpaceOnUse">
<stop stop-color="#FF753F"/>
<stop offset="1" stop-color="#FF4700"/>
</linearGradient>
<linearGradient id="paint8_linear" x1="667.872" y1="316.98" x2="664.01" y2="320.839" gradientUnits="userSpaceOnUse">
<stop stop-color="#FF753F"/>
<stop offset="1" stop-color="#FF4700"/>
</linearGradient>
<linearGradient id="paint9_linear" x1="664.157" y1="317.017" x2="668" y2="320.857" gradientUnits="userSpaceOnUse">
<stop stop-color="#FF753F"/>
<stop offset="1" stop-color="#FF4700"/>
</linearGradient>
<linearGradient id="paint10_linear" x1="352" y1="566" x2="352" y2="589" gradientUnits="userSpaceOnUse">
<stop stop-color="#1584A4"/>
<stop offset="1" stop-color="#13137E"/>
</linearGradient>
<linearGradient id="paint11_linear" x1="352.5" y1="217" x2="352.5" y2="524" gradientUnits="userSpaceOnUse">
<stop stop-color="#1584A4"/>
<stop offset="1" stop-color="#13137E"/>
</linearGradient>
<linearGradient id="paint12_linear" x1="352.5" y1="370.5" x2="352.5" y2="555.156" gradientUnits="userSpaceOnUse">
<stop stop-color="#1584A4"/>
<stop offset="1" stop-color="#13137E"/>
</linearGradient>
</defs>
</svg>
