<svg xmlns="http://www.w3.org/2000/svg" viewBox="0 0 1023.992 1054.4">
  <path id="Union_2" data-name="Union 2" d="M452.865,1051.194a549.283,549.283,0,0,1-58.613-9.622,25.4,25.4,0,0,1-14.5-8.855,25.785,25.785,0,0,1-5.783-16.065V912.089A414.6,414.6,0,0,1,242.94,837.41L151.1,889.694a26.2,26.2,0,0,1-31.987-4.792A525.1,525.1,0,0,1,1.166,683.826,25.47,25.47,0,0,1,6.2,659.588,25.051,25.051,0,0,1,12.94,654.1l91.9-52.285a405.52,405.52,0,0,1,0-149.231l-91.908-52.29A25.193,25.193,0,0,1,1.793,387.543a25.454,25.454,0,0,1-.633-16.98A524.244,524.244,0,0,1,119.107,169.486a26.179,26.179,0,0,1,31.987-4.792l91.84,52.284A414.67,414.67,0,0,1,373.967,142.3V37.753a25.746,25.746,0,0,1,5.758-16.05,25.381,25.381,0,0,1,14.467-8.861,546.761,546.761,0,0,1,235.549-.015,25.408,25.408,0,0,1,14.5,8.856,25.778,25.778,0,0,1,5.782,16.064V142.3a414.573,414.573,0,0,1,131.034,74.678l91.84-52.284a26.2,26.2,0,0,1,31.987,4.792,525.064,525.064,0,0,1,117.947,201.076,25.464,25.464,0,0,1-5.03,24.237,25.043,25.043,0,0,1-6.744,5.492l-91.9,52.287a371.607,371.607,0,0,1,0,142.8l91.908,58.725a25.188,25.188,0,0,1,11.141,12.749,25.452,25.452,0,0,1,.633,16.979A524.206,524.206,0,0,1,904.885,884.91a26.222,26.222,0,0,1-19.059,8.215h-.005A26.2,26.2,0,0,1,872.9,889.7l-54.59-31.078-74.425-128.91A307.6,307.6,0,0,0,820.092,527.1c0-169.832-138.168-308-308-308s-308,138.169-308,308,138.168,308,308,308a309.119,309.119,0,0,0,61.588-6.186l76.346,132.237v55.5a25.748,25.748,0,0,1-5.757,16.049,25.374,25.374,0,0,1-14.468,8.86,546.72,546.72,0,0,1-176.936,9.637Zm322.013-10.685-170.727-308q-2.23,1-4.478,1.948a224.206,224.206,0,0,1-42.234,13.081,227.688,227.688,0,0,1-90.692,0,224.052,224.052,0,0,1-80.454-33.78,225.237,225.237,0,0,1-81.519-98.774,223.054,223.054,0,0,1-13.11-42.141,226.2,226.2,0,0,1,0-90.49,223,223,0,0,1,33.855-80.274,225.248,225.248,0,0,1,393.892,38.134,222.936,222.936,0,0,1,13.11,42.14,226.2,226.2,0,0,1,0,90.49,223.011,223.011,0,0,1-33.854,80.275,225.882,225.882,0,0,1-49.017,52.151l171.584,309.544A16,16,0,0,1,815,1036.565l-18.367,10.181a15.992,15.992,0,0,1-21.751-6.237ZM336.092,527.6c0,97.323,79.177,176.5,176.5,176.5s176.5-79.178,176.5-176.5-79.177-176.5-176.5-176.5S336.092,430.277,336.092,527.6Z" transform="translate(0)" fill="currentColor"/>
</svg>
