<svg width="51" height="62" viewBox="0 0 51 62" fill="none" xmlns="http://www.w3.org/2000/svg">
<g clip-path="url(#clip0)">
<path fill-rule="evenodd" clip-rule="evenodd" d="M10.4737 30.4085C5.32685 26.1136 1.82851 20.8326 2.3704 14.8871C3.93175 -2.24336 37.0549 1.31593 43.5474 9.91641C50.04 18.5169 49.4119 40.4396 41.1003 42.036C37.7857 42.6726 30.7068 41.2081 23.4923 38.1306L28.1523 61.1065L1.48614 61.2732L10.4737 30.4085Z" fill="#B28B67"/>
<path fill-rule="evenodd" clip-rule="evenodd" d="M24.6913 16.6398C25.776 26.8709 28.5081 31.9728 32.8876 31.9455C39.4573 31.9044 45.0124 28.8667 47.895 28.8487C49.9964 28.8355 49.539 30.7318 48.1549 32.1443C47.013 33.3096 41.4237 34.4609 41.4349 36.2564C41.4461 38.0519 45.859 36.6352 45.8657 37.7001C45.8767 39.4615 46.6744 42.7685 42.4284 42.7951C38.1312 42.8219 25.8033 41.7715 23.6632 37.1927C22.282 34.2376 21.3625 28.1021 20.9048 18.7861C20.644 18.7655 20.3787 18.7556 20.1096 18.7573C16.4278 18.7803 13.4565 20.948 13.4731 23.5989C13.4815 24.9447 14.2583 26.1562 15.5029 27.0201C13.9701 28.5974 12.2516 30.2458 10.2812 31.948C2.81906 28.7797 -2.76219 19.4035 4.45711 10.3176C6.44049 5.87631 10.9785 3.48229 16.3485 2.35028C20.6959 1.01124 25.2165 0.835073 29.0382 1.59763C36.523 2.01293 43.2143 3.61381 45.1139 4.5775C45.1458 9.67758 43.7827 11.1993 32.0587 11.1392C29.185 12.2526 26.9823 14.1526 24.6913 16.6398Z" fill="#191847"/>
</g>
<defs>
<clipPath id="clip0">
<rect y="1.28131" width="50" height="60" transform="rotate(-0.35815 0 1.28131)" fill="white"/>
</clipPath>
</defs>
</svg>
