<svg width="35" height="34" viewBox="0 0 35 34" fill="none" xmlns="http://www.w3.org/2000/svg">
<path d="M17.5007 17.2609C17.4179 17.3084 16.9582 17.5066 16.1215 17.8553C15.2849 18.204 14.8003 18.4259 14.6677 18.5211C15.2973 19.4246 15.902 20.2013 16.4818 20.8512C16.3327 21.1682 16.1174 21.9053 15.8357 23.0625C15.5541 24.2196 15.2517 25.5512 14.9287 27.0571C14.6056 28.5629 14.4358 29.3476 14.4192 29.411C14.4027 29.3634 14.2287 29.3 13.8974 29.2208C13.566 29.1415 13.214 28.9949 12.8412 28.7809C12.4685 28.5669 12.2241 28.2697 12.1081 27.8893C11.843 27.0333 11.6194 25.7493 11.4371 24.0374C11.2549 22.3254 11.1141 20.7997 11.0147 19.4602C10.9153 18.1208 10.8076 17.3797 10.6916 17.2371C10.5757 17.2846 10.3147 17.4114 9.90883 17.6175C9.50293 17.8236 9.08461 18.0059 8.65387 18.1644C8.15685 18.3388 7.4776 18.5765 6.61611 18.8777C5.75462 19.1789 5.07536 19.4206 4.57835 19.6029C4.08133 19.7852 3.53048 20.0032 2.92577 20.2568C2.32107 20.5104 1.83234 20.768 1.45958 21.0295C1.08682 21.2911 0.801037 21.5566 0.602231 21.8261C0.204619 22.8406 0.0058136 26.8985 0.0058136 34H34.9956C34.9956 32.2246 34.9501 29.9103 34.859 27.0571C34.7678 24.2038 34.6146 22.4601 34.3992 21.8261C34.2004 21.5566 33.9146 21.2911 33.5419 21.0295C33.1691 20.768 32.6804 20.5104 32.0757 20.2568C31.471 20.0032 30.9201 19.7852 30.4231 19.6029C29.9261 19.4206 29.2468 19.1789 28.3853 18.8777C27.5239 18.5765 26.8446 18.3388 26.3476 18.1644C25.9168 18.0059 25.4985 17.8236 25.0926 17.6175C24.6867 17.4114 24.4258 17.2846 24.3098 17.2371C24.1939 17.3797 24.0986 18.1208 24.024 19.4602C23.9495 20.7997 23.8335 22.3254 23.6761 24.0374C23.5187 25.7493 23.3075 27.0333 23.0424 27.8893C22.9265 28.2697 22.6821 28.5669 22.3093 28.7809C21.9366 28.9949 21.5845 29.1415 21.2532 29.2208C20.9218 29.3 20.7479 29.3634 20.7313 29.411C19.7042 24.608 18.9669 21.7547 18.5196 20.8512C19.0995 20.2013 19.7042 19.4246 20.3337 18.5211C20.2012 18.4259 19.7166 18.204 18.8799 17.8553C18.0433 17.5066 17.5836 17.3084 17.5007 17.2609ZM17.5007 0.521729C19.7042 0.521729 21.5804 1.26278 23.1294 2.74489C24.6784 4.22701 25.453 6.02218 25.453 8.13042C25.453 10.2387 24.6784 12.0338 23.1294 13.516C21.5804 14.9981 19.7042 15.7391 17.5007 15.7391C15.2973 15.7391 13.4211 14.9981 11.872 13.516C10.323 12.0338 9.54849 10.2387 9.54849 8.13042C9.54849 6.02218 10.323 4.22701 11.872 2.74489C13.4211 1.26278 15.2973 0.521729 17.5007 0.521729ZM24.2601 8.17798C23.614 8.30479 22.6904 8.24535 21.4893 7.99965C20.2881 7.75395 19.2734 7.46466 18.4451 7.13178C17.8818 6.89401 17.3433 6.62057 16.8298 6.31147C16.3162 6.00237 15.728 5.61401 15.0654 5.14639C14.4027 4.67877 13.8891 4.334 13.5246 4.11208C13.7897 5.9984 12.8619 7.34578 10.7413 8.1542C10.7579 9.94542 11.4247 11.4672 12.7418 12.7194C14.0589 13.9717 15.6452 14.5978 17.5007 14.5978C19.3562 14.5978 20.9426 13.9717 22.2596 12.7194C23.5767 11.4672 24.2436 9.95334 24.2601 8.17798Z" fill="white"/>
</svg>
